<svg id="Capa_1" enable-background="new 0 0 512 512"
     class="w-5 h-5 text-bleu-vert lg:w-7 lg:h-7"
     fill="#264653"
     viewBox="0 0 512 512"
     xmlns="http://www.w3.org/2000/svg">
    <g><g id="Page-1_79_"><g id="_x30_80---Stop-Frame-Animation"><g clip-rule="evenodd" fill-rule="evenodd"><path id="Path_454_" d="m231.698 164.05c1.536.836 3.424.663 4.782-.439l53.696-39.726c1.516-1.229 2.397-3.077 2.397-5.029s-.881-3.799-2.397-5.029l-53.705-39.735c-.783-.615-1.748-.952-2.743-.96-.718.002-1.424.181-2.057.521-2.022 1.063-3.243 3.204-3.127 5.486v79.451c-.1 2.28 1.13 4.409 3.154 5.46z"/><path id="Path_453_" d="m393.143 493.714h-274.286c-5.049 0-9.143 4.093-9.143 9.143 0 5.049 4.093 9.143 9.143 9.143h274.286c5.049 0 9.143-4.093 9.143-9.143 0-5.049-4.094-9.143-9.143-9.143z"/><path id="Path_452_" d="m188.507 438.857-18.285 36.572h171.556l-18.285-36.572z"/><path id="Path_451_" d="m0 411.429c0 5.049 4.093 9.143 9.143 9.143h493.714c5.049 0 9.143-4.093 9.143-9.143v-27.429h-512z"/></g><path id="Shape_211_" d="m502.857 0h-493.714c-5.05 0-9.143 4.093-9.143 9.143v356.571h512v-356.571c0-5.05-4.093-9.143-9.143-9.143zm-292.571 79.131c-.1-9.177 5.003-17.62 13.175-21.797 7.713-3.911 16.976-3.106 23.899 2.075l53.696 39.726c6.178 4.677 9.808 11.977 9.808 19.726s-3.63 15.049-9.808 19.726l-53.696 39.698c-6.922 5.184-16.187 5.989-23.899 2.075-8.166-4.174-13.268-12.608-13.175-21.778zm237.714 186.012c-16.413-.049-30.774-11.047-35.099-26.88-55.04 7.223-65.435 91.045-65.536 91.931-.534 4.611-4.437 8.09-9.079 8.091h-.192c-4.732-.088-8.616-3.772-8.951-8.494-.046-.914-7.314-92.078-68.571-92.078-61.422 0-68.571 91.154-68.571 92.069-.337 4.798-4.333 8.515-9.143 8.503-4.806.012-8.802-3.699-9.143-8.494 0-.914-7.314-92.078-68.571-92.078-61.422 0-68.526 91.154-68.571 92.069-.337 4.798-4.333 8.515-9.143 8.503h-.64c-2.427-.164-4.689-1.288-6.285-3.124s-2.394-4.232-2.218-6.659c2.67-37.76 24.229-109.074 86.857-109.074 42.533 0 66.121 32.914 77.714 65.829 11.593-32.914 35.182-65.829 77.714-65.829 43.648 0 67.346 34.661 78.629 68.434 10.661-29.147 32-64 73.426-68.032 4.579-18.478 22.583-30.34 41.369-27.257s32.053 20.078 30.486 39.051c-1.568 18.973-17.445 33.56-36.482 33.519z"/><circle id="Oval_55_" clip-rule="evenodd" cx="448" cy="228.571" fill-rule="evenodd" r="18.286"/></g></g></g></svg>