<svg id="Layer_1" enable-background="new 0 0 512 512"
     class="w-5 h-5 text-bleu-vert lg:w-7 lg:h-7"
     fill="#264653"
     viewBox="0 0 512 512"
     xmlns="http://www.w3.org/2000/svg">
    <path clip-rule="evenodd" d="m404.693 85.622c5.076 1.298 9.866 3.307 14.261 5.913l17.85-12.924 14.283 14.283-12.924 17.85c2.606 4.394 4.614 9.185 5.913 14.26l21.754 3.482v20.199l-21.753 3.482c-1.298 5.075-3.307 9.866-5.914 14.26l12.924 17.85-14.283 14.283-17.85-12.924c-4.395 2.606-9.185 4.614-14.26 5.913l-3.482 21.754h-20.2l-3.482-21.753c-5.076-1.298-9.866-3.307-14.261-5.914l-17.85 12.924-14.283-14.283 12.924-17.85c-2.606-4.394-4.614-9.185-5.912-14.26l-21.755-3.482v-20.199l21.755-3.483c1.298-5.075 3.306-9.865 5.912-14.26l-12.924-17.85 14.283-14.283 17.849 12.923c4.395-2.606 9.185-4.615 14.261-5.913l3.482-21.753h20.2zm-220.02-30.988h102.405c4.418 0 8 3.582 8 8s-3.582 8-8 8h-102.405c-4.418 0-8-3.582-8-8s3.581-8 8-8zm159.079 164.889-33.576-33.576 14.307-19.761-24.09-3.856v-47.484l24.09-3.857-14.308-19.761 33.576-33.576 19.761 14.307 2.706-16.908h-28.756c-4.418 0-8-3.582-8-8v-39.051h-193.975v312.393h241.027v-91.087h-9.145l-3.856-24.09zm-59.903-38.766c4.418 0 8 3.582 8 8s-3.582 8-8 8h-99.176c-4.418 0-8-3.582-8-8s3.582-8 8-8zm0-42.042c4.418 0 8 3.582 8 8s-3.582 8-8 8h-99.176c-4.418 0-8-3.582-8-8s3.582-8 8-8zm-99.176-42.04h102.405c4.418 0 8 3.582 8 8s-3.582 8-8 8c-29.884 0-72.521 0-102.405 0-4.418 0-8-3.582-8-8s3.581-8 8-8zm0 126.122h142.655c4.418 0 8 3.582 8 8s-3.582 8-8 8h-142.655c-4.418 0-8-3.582-8-8s3.581-8 8-8zm-8 50.041c0-4.418 3.582-8 8-8h142.655c4.418 0 8 3.582 8 8s-3.582 8-8 8h-142.655c-4.419 0-8-3.582-8-8zm13.381 187.198h-49.107c-15.132 0-27.512 9.891-27.512 21.982v21.982h285.132v-21.982c0-12.09-12.38-21.982-27.512-21.982h-49.107v-51.257h111.622c17.744 0 32.262-14.518 32.262-32.262v-184.353l-26.978 26.978v135.292h-365.706v-200.672c0-2.461 2.013-4.474 4.474-4.474h41.864v-26.978h-41.054c-17.744 0-32.262 14.518-32.262 32.262v221.945c0 17.744 14.518 32.262 32.262 32.262h111.622zm155.408-444.036 23.051 23.051h-23.051zm45.649 92.741c-16.483 0-29.846 13.363-29.846 29.846 0 16.484 13.362 29.846 29.846 29.846 16.483 0 29.846-13.363 29.846-29.846s-13.363-29.846-29.846-29.846z" fill-rule="evenodd"/></svg>