<svg id="Layer_1" enable-background="new 0 0 450 450"
     class="w-5 h-5 text-bleu-vert lg:w-7 lg:h-7"
     fill="#264653"
     viewBox="0 0 450 450"
     xmlns="http://www.w3.org/2000/svg">
    <g id="_x32_074_-_Cloud_Computing"><g><g><g><g><path d="m385.3 120.4c0 26.6-22.1 48.3-49.2 48.3h-224c-27.1 0-49.2-21.6-49.2-48.3s22.1-48.3 49.2-48.3c2.4 0 4.4-2 4.4-4.4 0-21.3 17.7-38.7 39.5-38.7 5.9 0 11.6 1.3 16.9 3.7 1.8.8 4 .3 5.2-1.2 11.3-13.8 28-21.7 46-21.7 17.1 0 33.3 7.3 44.5 19.9.8.9 1.9 1.4 3.1 1.5s2.3-.4 3.2-1.2c7.4-6.9 17-10.7 27.2-10.7 21.8 0 39.5 17.3 39.5 38.7 0 3.1-.4 6.2-1.1 9.2-.3 1.2-.1 2.4.6 3.5.7 1 1.8 1.7 3 1.9 23.8 3.9 41.2 24 41.2 47.8z"/></g></g></g><g><g><g><path d="m20.8 362v30.6h181.1v-30.6zm98.4 21.5h-9.8c-2.4 0-4.4-2-4.4-4.4s2-4.4 4.4-4.4h9.8c2.4 0 4.4 2 4.4 4.4s-2 4.4-4.4 4.4z"/><path d="m20.8 230.9h181.1v122.3h-181.1z"/></g></g></g><g><g><g><path d="m143.9 440h-59.2l16.9-19.7h25.4z"/></g></g></g><g><g><g><path d="m104 401.4h20.6v10.2h-20.6z"/></g></g></g><g><g><g><path d="m248.1 230.9h181.1v122.3h-181.1z"/><path d="m248.1 362v30.6h181.1v-30.6zm97.5 21.5h-9.8c-2.4 0-4.4-2-4.4-4.4s1.9-4.4 4.4-4.4h9.8c2.4 0 4.4 2 4.4 4.4s-2 4.4-4.4 4.4z"/></g></g></g><g><g><g><path d="m370.3 440h-59.2l17-19.7h25.3z"/></g></g></g><g><g><g><path d="m330.4 401.4h20.6v10.2h-20.6z"/></g></g></g><g><g><g><path d="m341.2 198.8v23.4h-8.7v-19h-218.5v19h-8.7v-23.4c0-2.4 2-4.4 4.4-4.4h109.2v-17h8.7v17h109.2c2.5 0 4.4 2 4.4 4.4z"/></g></g></g></g></g></svg>