<?xml version="1.0" encoding="utf-8"?>
<!-- Generator: Adobe Illustrator 19.0.0, SVG Export Plug-In . SVG Version: 6.00 Build 0)  -->
<svg version="1.1" id="layer" xmlns="http://www.w3.org/2000/svg" x="0px" y="0px"
	 viewBox="-153 -46 652 652" style="enable-background:new -153 -46 652 652;" xml:space="preserve">
<style type="text/css">
	.st0{fill:#FC5656;}
</style>
<path class="st0" d="M2.1,236.7c-11.4-11.4-23.5-4-31.1,3.6l-71.7,71.7c-7.6,7.6-15.5,19.1-3.6,31.1c12,12,23.5,4,31.1-3.6
	l71.7-71.7C6.1,260.2,13.5,248.1,2.1,236.7z M-66.4,233.8l15.2,15.2l15.5-15.5c1-1.1,2.1-2,3.2-2.9c-1.6-8.2-6.3-15.6-18.7-15.6
	c-12.4,0-17.1,7.4-18.7,15.6C-68.7,231.6-67.6,232.6-66.4,233.8z M-35.8,346.7l-15.5-15.5l-15.2,15.2c-1.2,1.2-2.3,2.2-3.4,3.2
	c1.7,8.3,6.7,16,18.6,16c12,0,16.9-7.7,18.6-16C-33.7,348.6-34.7,347.7-35.8,346.7z M-72.9,270.6h-29.3c-10.7,0-24.5,3.4-24.5,19.4
	c0,12,7.7,16.9,16,18.6C-109.6,307.6-72.9,270.6-72.9,270.6z M8.2,271.4c-0.9,1.1-37.8,38.1-37.8,38.1h28.9
	c10.7,0,24.5-2.5,24.5-19.4C23.8,277.7,16.4,273,8.2,271.4z M-63.3,261l5.2-5.2l-15.2-15.2c-7.6-7.6-19.1-15.5-31.1-3.6
	c-8.8,8.8-6.8,17.3-2.2,24.2C-105.1,261.1-63.3,261-63.3,261z M-39.2,319.1l-5.2,5.2l15.5,15.5c7.6,7.6,19.7,14.9,31.1,3.6
	c8.5-8.5,6.5-17.4,1.8-24.5C2.5,319-39.2,319.1-39.2,319.1z M325,240.2c-2.6,0-7.1,0.6-12.1,2.8c-6.5,2.8-9.9,5-11.7,7.8
	c-6.5-7.6-14.9-9.9-24.4-9.9c-27.9,0-47.8,23.6-47.8,57.1c0,28.1,15.1,48.9,36.5,48.9c6.5,0,12.3-2.6,19.2-9.1c5.4-5,8-8.2,8-11.2
	c0-2.2-1.5-3.7-3.7-3.7c-3,0-6.3,2.6-10.4,2.6c-8.9,0-14.9-13.6-14.9-33.7c0-20.1,8-33.7,20.1-33.7c8,0,14.1,6.1,14.1,16.4v63.1
	c0,6.9,6.5,8.9,18.4,8.9c11.7,0,16.2-2.2,16.2-8.9v-90.4C332.6,242.8,329.8,240.2,325,240.2z M191.7,240.2c-8.4,0-17.3,3-25.1,9.1
	c-4.3,3.5-8,7.3-8,10.6c0,2.8,1.9,4.3,4.8,4.3c4.8,0,6.3-1.9,10.8-1.9c4.5,0,6.7,4.3,6.7,11.9v63.3c0,6.9,6.5,8.9,18.4,8.9
	c11.7,0,16.2-2.2,16.2-8.9v-69.4C215.4,251.7,205.7,240.2,191.7,240.2z M130.9,240.2c-8.9,0-16.9,3-24.6,9.1c-4.3,3.5-8,7.3-8,10.6
	c0,2.8,1.9,4.3,4.8,4.3c4.8,0,6.3-1.9,10.4-1.9c4.1,0,6.3,4.3,6.3,11.9v63.3c0,6.9,6.5,8.9,18.4,8.9c11.7,0,16.2-2.2,16.2-8.9v-69.4
	C154.3,251.7,144.5,240.2,130.9,240.2z M85.5,240.2c-3.2,0-7.1,0.6-12.1,2.8c-10.8,4.8-14.9,7.8-14.9,14.5v80
	c0,6.9,6.5,8.9,18.4,8.9c11.7,0,16.2-2.2,16.2-8.9v-90.4C93.1,242.8,90.3,240.2,85.5,240.2z M465.8,317.2
	c-8.6,2.2-11.2,2.8-14.3,2.8c-3.7,0-5-1.1-5-5v-54h19.7c5.2,0,7.1-1.9,7.1-7.1c0-4.3-1.9-6.5-7.1-6.5h-19.7v-21
	c0-6.5-2.2-9.1-6.7-9.1c-4.3,0-10.4,3.9-23.3,14.9c-13.2,11.2-20.8,18.6-20.8,23.8c0,3,2.2,5,5.6,5h10.6v58.4c0,17.1,8.4,27,23.1,27
	c9.7,0,16.9-3.7,25.3-10.2c7.8-6.1,12.8-10.8,12.8-14.9C473.1,317.8,470.5,315.9,465.8,317.2z M378.2,194.6c-1.7,0-7.1,0.6-12.1,2.8
	c-10.8,4.5-14.9,7.8-14.9,14.5v125.6c0,6.9,6.5,8.9,18.4,8.9c11.7,0,16.2-2.2,16.2-8.9v-136C385.8,197.2,383,194.6,378.2,194.6z"/>
</svg>
