<svg class="w-5 h-5 text-bleu-vert lg:w-6 lg:h-6" id="Layer_1"
     height="512" viewBox="0 0 64 64"
     width="512" xmlns="http://www.w3.org/2000/svg" data-name="Layer 1">
    <path d="m60 6h-56a3 3 0 0 0 -3 3v46a3 3 0 0 0 3 3h56a3 3 0 0 0 3-3v-46a3 3 0 0 0 -3-3zm1 49a1 1 0 0 1 -1 1h-56a1 1 0 0 1 -1-1v-39h58zm0-41h-58v-5a1 1 0 0 1 1-1h56a1 1 0 0 1 1 1z"/>
    <path d="m5 10h16v2h-16z"/>
    <path d="m57 10h2v2h-2z"/>
    <path d="m53 10h2v2h-2z"/>
    <path d="m49 10h2v2h-2z"/>
    <path d="m22.41 31.24 4.22.85a18.29 18.29 0 0 0 -1.23 3.08 1 1 0 0 0 .26 1l6.62 6.63a1 1 0 0 0 .71.29.84.84 0 0 0 .27 0 17 17 0 0 0 3.08-1.23l.84 4.14a1 1 0 0 0 .69.76 1 1 0 0 0 .29 0 1 1 0 0 0 .71-.3l4.24-4.24a1 1 0 0 0 .29-.8l-.4-4.84c4.37-5.74 4-13.78 4-14.15a1 1 0 0 0 -.94-.95c-.36 0-8.41-.39-14.15 4l-4.97-.48a1 1 0 0 0 -.8.29l-4.24 4.26a1 1 0 0 0 .51 1.69zm16.37 12.55-.61-3a21.42 21.42 0 0 0 3-2.19l.24 2.63zm6.22-20.32c0 2.44-.56 9.05-4.66 13.15a19.83 19.83 0 0 1 -7 4.31l-5.84-5.78a19.86 19.86 0 0 1 4.3-7c4.1-4.15 10.72-4.63 13.2-4.68zm-17.77 3.59 2.63.24a20.58 20.58 0 0 0 -2.2 2.95l-3-.6z"/>
    <path d="m36 36.38a4 4 0 1 0 -2.83-6.83 4 4 0 0 0 2.83 6.83zm-1.37-5.38a2 2 0 0 1 1.37-.62 2 2 0 1 1 -1.41.59z"/>
    <path d="m18.15 44a10 10 0 0 1 1.46 0c-1.31 1.23-2.79 3.27-1.91 5.77a1 1 0 0 0 1.65.37 7.83 7.83 0 0 1 2.7-1.74c.16 1.42.44 1.7.6 1.86a1 1 0 0 0 .71.29.79.79 0 0 0 .3-.05c6.13-1.93 6.35-5.43 5.94-7.35l-2 .42c.44 2-.77 3.57-3.58 4.68 0-.3-.07-.64-.09-1a1 1 0 0 0 -.84-.93 5.24 5.24 0 0 0 -3.52 1 7 7 0 0 1 2.65-2.91 1 1 0 0 0 .49-.78 1 1 0 0 0 -.35-.84 4.3 4.3 0 0 0 -2.28-.79 6.31 6.31 0 0 1 4.75-1.24l.51-1.93c-2-.54-6.51.25-8.2 3.73a1 1 0 0 0 1 1.43z"/>
</svg>